<mxfile host="app.diagrams.net" modified="2024-05-22T06:03:33.526Z" agent="Mozilla/5.0 (Windows NT 10.0; Win64; x64) AppleWebKit/537.36 (KHTML, like Gecko) Chrome/124.0.0.0 Safari/537.36" etag="-x23xF-GQxRbtOqIfnVG" version="24.4.4" type="device">
  <diagram name="Trang-1" id="4vlvKwi82Ou7oRTnKCyy">
    <mxGraphModel dx="1050" dy="557" grid="1" gridSize="10" guides="1" tooltips="1" connect="1" arrows="1" fold="1" page="1" pageScale="1" pageWidth="850" pageHeight="1100" math="0" shadow="0">
      <root>
        <mxCell id="0" />
        <mxCell id="1" parent="0" />
        <mxCell id="6a332XUQ1_-ckGSK8rPv-6" value="IShape" style="rounded=0;whiteSpace=wrap;html=1;fontSize=9;" parent="1" vertex="1">
          <mxGeometry x="120" y="10" width="90" height="40" as="geometry" />
        </mxCell>
        <mxCell id="6a332XUQ1_-ckGSK8rPv-7" value="Rectangle" style="rounded=0;whiteSpace=wrap;html=1;fontSize=9;" parent="1" vertex="1">
          <mxGeometry x="10" y="100" width="80" height="30" as="geometry" />
        </mxCell>
        <mxCell id="6a332XUQ1_-ckGSK8rPv-8" value="Circle" style="rounded=0;whiteSpace=wrap;html=1;fontSize=9;" parent="1" vertex="1">
          <mxGeometry x="110" y="100" width="70" height="32.5" as="geometry" />
        </mxCell>
        <mxCell id="6a332XUQ1_-ckGSK8rPv-9" value="Triangle" style="rounded=0;whiteSpace=wrap;html=1;fontSize=9;" parent="1" vertex="1">
          <mxGeometry x="200" y="102.5" width="70" height="30" as="geometry" />
        </mxCell>
        <mxCell id="6a332XUQ1_-ckGSK8rPv-12" value="" style="endArrow=block;dashed=1;endFill=0;endSize=12;html=1;rounded=0;exitX=0.5;exitY=0;exitDx=0;exitDy=0;entryX=0.5;entryY=1;entryDx=0;entryDy=0;fontSize=9;" parent="1" source="6a332XUQ1_-ckGSK8rPv-7" target="6a332XUQ1_-ckGSK8rPv-6" edge="1">
          <mxGeometry width="160" relative="1" as="geometry">
            <mxPoint x="120" y="120" as="sourcePoint" />
            <mxPoint x="270" y="110" as="targetPoint" />
          </mxGeometry>
        </mxCell>
        <mxCell id="6a332XUQ1_-ckGSK8rPv-13" value="" style="endArrow=block;dashed=1;endFill=0;endSize=12;html=1;rounded=0;exitX=0.5;exitY=0;exitDx=0;exitDy=0;entryX=0.5;entryY=1;entryDx=0;entryDy=0;fontSize=9;" parent="1" source="6a332XUQ1_-ckGSK8rPv-8" target="6a332XUQ1_-ckGSK8rPv-6" edge="1">
          <mxGeometry width="160" relative="1" as="geometry">
            <mxPoint x="100" y="230" as="sourcePoint" />
            <mxPoint x="290" y="110" as="targetPoint" />
          </mxGeometry>
        </mxCell>
        <mxCell id="6a332XUQ1_-ckGSK8rPv-14" value="" style="endArrow=block;dashed=1;endFill=0;endSize=12;html=1;rounded=0;exitX=0.5;exitY=0;exitDx=0;exitDy=0;entryX=0.577;entryY=1.017;entryDx=0;entryDy=0;entryPerimeter=0;fontSize=9;" parent="1" source="6a332XUQ1_-ckGSK8rPv-9" target="6a332XUQ1_-ckGSK8rPv-6" edge="1">
          <mxGeometry width="160" relative="1" as="geometry">
            <mxPoint x="510" y="230" as="sourcePoint" />
            <mxPoint x="700" y="120" as="targetPoint" />
          </mxGeometry>
        </mxCell>
        <mxCell id="6a332XUQ1_-ckGSK8rPv-15" value="IShape" style="swimlane;fontStyle=1;align=center;verticalAlign=top;childLayout=stackLayout;horizontal=1;startSize=26;horizontalStack=0;resizeParent=1;resizeParentMax=0;resizeLast=0;collapsible=1;marginBottom=0;whiteSpace=wrap;html=1;fontSize=9;" parent="1" vertex="1">
          <mxGeometry x="180" y="160" width="130" height="34" as="geometry" />
        </mxCell>
        <mxCell id="6a332XUQ1_-ckGSK8rPv-17" value="" style="line;strokeWidth=1;fillColor=none;align=left;verticalAlign=middle;spacingTop=-1;spacingLeft=3;spacingRight=3;rotatable=0;labelPosition=right;points=[];portConstraint=eastwest;strokeColor=inherit;fontSize=9;" parent="6a332XUQ1_-ckGSK8rPv-15" vertex="1">
          <mxGeometry y="26" width="130" height="8" as="geometry" />
        </mxCell>
        <mxCell id="6a332XUQ1_-ckGSK8rPv-22" value="Rectangle" style="swimlane;fontStyle=1;align=center;verticalAlign=top;childLayout=stackLayout;horizontal=1;startSize=26;horizontalStack=0;resizeParent=1;resizeParentMax=0;resizeLast=0;collapsible=1;marginBottom=0;whiteSpace=wrap;html=1;fontSize=9;" parent="1" vertex="1">
          <mxGeometry x="10" y="250" width="140" height="110" as="geometry" />
        </mxCell>
        <mxCell id="6a332XUQ1_-ckGSK8rPv-23" value="-_a: double&lt;div style=&quot;font-size: 9px;&quot;&gt;-_b: double&lt;/div&gt;" style="text;strokeColor=none;fillColor=none;align=left;verticalAlign=top;spacingLeft=4;spacingRight=4;overflow=hidden;rotatable=0;points=[[0,0.5],[1,0.5]];portConstraint=eastwest;whiteSpace=wrap;html=1;fontSize=9;" parent="6a332XUQ1_-ckGSK8rPv-22" vertex="1">
          <mxGeometry y="26" width="140" height="34" as="geometry" />
        </mxCell>
        <mxCell id="6a332XUQ1_-ckGSK8rPv-24" value="" style="line;strokeWidth=1;fillColor=none;align=left;verticalAlign=middle;spacingTop=-1;spacingLeft=3;spacingRight=3;rotatable=0;labelPosition=right;points=[];portConstraint=eastwest;strokeColor=inherit;fontSize=9;" parent="6a332XUQ1_-ckGSK8rPv-22" vertex="1">
          <mxGeometry y="60" width="140" height="8" as="geometry" />
        </mxCell>
        <mxCell id="6a332XUQ1_-ckGSK8rPv-25" value="+ Rectangle()&lt;div style=&quot;font-size: 9px;&quot;&gt;+ Rectangle(double, double)&lt;/div&gt;" style="text;strokeColor=none;fillColor=none;align=left;verticalAlign=top;spacingLeft=4;spacingRight=4;overflow=hidden;rotatable=0;points=[[0,0.5],[1,0.5]];portConstraint=eastwest;whiteSpace=wrap;html=1;fontSize=9;" parent="6a332XUQ1_-ckGSK8rPv-22" vertex="1">
          <mxGeometry y="68" width="140" height="42" as="geometry" />
        </mxCell>
        <mxCell id="6a332XUQ1_-ckGSK8rPv-26" value="Circle" style="swimlane;fontStyle=1;align=center;verticalAlign=top;childLayout=stackLayout;horizontal=1;startSize=26;horizontalStack=0;resizeParent=1;resizeParentMax=0;resizeLast=0;collapsible=1;marginBottom=0;whiteSpace=wrap;html=1;fontSize=9;" parent="1" vertex="1">
          <mxGeometry x="165" y="240" width="140" height="110" as="geometry" />
        </mxCell>
        <mxCell id="6a332XUQ1_-ckGSK8rPv-27" value="-_r: double" style="text;strokeColor=none;fillColor=none;align=left;verticalAlign=top;spacingLeft=4;spacingRight=4;overflow=hidden;rotatable=0;points=[[0,0.5],[1,0.5]];portConstraint=eastwest;whiteSpace=wrap;html=1;fontSize=9;" parent="6a332XUQ1_-ckGSK8rPv-26" vertex="1">
          <mxGeometry y="26" width="140" height="34" as="geometry" />
        </mxCell>
        <mxCell id="6a332XUQ1_-ckGSK8rPv-28" value="" style="line;strokeWidth=1;fillColor=none;align=left;verticalAlign=middle;spacingTop=-1;spacingLeft=3;spacingRight=3;rotatable=0;labelPosition=right;points=[];portConstraint=eastwest;strokeColor=inherit;fontSize=9;" parent="6a332XUQ1_-ckGSK8rPv-26" vertex="1">
          <mxGeometry y="60" width="140" height="8" as="geometry" />
        </mxCell>
        <mxCell id="6a332XUQ1_-ckGSK8rPv-29" value="+ Circle()&lt;div style=&quot;font-size: 9px;&quot;&gt;+ Circle(double)&lt;/div&gt;" style="text;strokeColor=none;fillColor=none;align=left;verticalAlign=top;spacingLeft=4;spacingRight=4;overflow=hidden;rotatable=0;points=[[0,0.5],[1,0.5]];portConstraint=eastwest;whiteSpace=wrap;html=1;fontSize=9;" parent="6a332XUQ1_-ckGSK8rPv-26" vertex="1">
          <mxGeometry y="68" width="140" height="42" as="geometry" />
        </mxCell>
        <mxCell id="6a332XUQ1_-ckGSK8rPv-30" value="Triangle" style="swimlane;fontStyle=1;align=center;verticalAlign=top;childLayout=stackLayout;horizontal=1;startSize=26;horizontalStack=0;resizeParent=1;resizeParentMax=0;resizeLast=0;collapsible=1;marginBottom=0;whiteSpace=wrap;html=1;fontSize=9;" parent="1" vertex="1">
          <mxGeometry x="320" y="240" width="150" height="130" as="geometry" />
        </mxCell>
        <mxCell id="6a332XUQ1_-ckGSK8rPv-31" value="-_a: double&lt;div style=&quot;font-size: 9px;&quot;&gt;-_b: double&lt;/div&gt;&lt;div style=&quot;font-size: 9px;&quot;&gt;-_c: double&lt;/div&gt;" style="text;strokeColor=none;fillColor=none;align=left;verticalAlign=top;spacingLeft=4;spacingRight=4;overflow=hidden;rotatable=0;points=[[0,0.5],[1,0.5]];portConstraint=eastwest;whiteSpace=wrap;html=1;fontSize=9;" parent="6a332XUQ1_-ckGSK8rPv-30" vertex="1">
          <mxGeometry y="26" width="150" height="44" as="geometry" />
        </mxCell>
        <mxCell id="6a332XUQ1_-ckGSK8rPv-32" value="" style="line;strokeWidth=1;fillColor=none;align=left;verticalAlign=middle;spacingTop=-1;spacingLeft=3;spacingRight=3;rotatable=0;labelPosition=right;points=[];portConstraint=eastwest;strokeColor=inherit;fontSize=9;" parent="6a332XUQ1_-ckGSK8rPv-30" vertex="1">
          <mxGeometry y="70" width="150" height="8" as="geometry" />
        </mxCell>
        <mxCell id="6a332XUQ1_-ckGSK8rPv-33" value="+ Triangle()&lt;div style=&quot;font-size: 9px;&quot;&gt;+ Triangle(double, double, double)&lt;/div&gt;" style="text;strokeColor=none;fillColor=none;align=left;verticalAlign=top;spacingLeft=4;spacingRight=4;overflow=hidden;rotatable=0;points=[[0,0.5],[1,0.5]];portConstraint=eastwest;whiteSpace=wrap;html=1;fontSize=9;" parent="6a332XUQ1_-ckGSK8rPv-30" vertex="1">
          <mxGeometry y="78" width="150" height="52" as="geometry" />
        </mxCell>
        <mxCell id="6a332XUQ1_-ckGSK8rPv-34" value="" style="endArrow=block;dashed=1;endFill=0;endSize=12;html=1;rounded=0;exitX=0.5;exitY=0;exitDx=0;exitDy=0;entryX=0.75;entryY=1;entryDx=0;entryDy=0;fontSize=9;" parent="1" source="6a332XUQ1_-ckGSK8rPv-30" target="6a332XUQ1_-ckGSK8rPv-15" edge="1">
          <mxGeometry width="160" relative="1" as="geometry">
            <mxPoint x="561" y="389" as="sourcePoint" />
            <mxPoint x="370" y="320" as="targetPoint" />
          </mxGeometry>
        </mxCell>
        <mxCell id="6a332XUQ1_-ckGSK8rPv-35" value="" style="endArrow=block;dashed=1;endFill=0;endSize=12;html=1;rounded=0;exitX=0.5;exitY=0;exitDx=0;exitDy=0;entryX=0.5;entryY=1;entryDx=0;entryDy=0;fontSize=9;" parent="1" source="6a332XUQ1_-ckGSK8rPv-26" target="6a332XUQ1_-ckGSK8rPv-15" edge="1">
          <mxGeometry width="160" relative="1" as="geometry">
            <mxPoint x="250" y="339" as="sourcePoint" />
            <mxPoint x="59" y="270" as="targetPoint" />
          </mxGeometry>
        </mxCell>
        <mxCell id="6a332XUQ1_-ckGSK8rPv-36" value="" style="endArrow=block;dashed=1;endFill=0;endSize=12;html=1;rounded=0;exitX=0.5;exitY=0;exitDx=0;exitDy=0;fontSize=9;" parent="1" source="6a332XUQ1_-ckGSK8rPv-22" target="6a332XUQ1_-ckGSK8rPv-15" edge="1">
          <mxGeometry width="160" relative="1" as="geometry">
            <mxPoint x="510" y="180" as="sourcePoint" />
            <mxPoint x="270" y="310" as="targetPoint" />
          </mxGeometry>
        </mxCell>
        <mxCell id="6a332XUQ1_-ckGSK8rPv-37" value="RandomIntegerGenenrator" style="rounded=0;whiteSpace=wrap;html=1;fontSize=9;" parent="1" vertex="1">
          <mxGeometry x="440" y="20" width="120" height="40" as="geometry" />
        </mxCell>
        <mxCell id="6a332XUQ1_-ckGSK8rPv-38" value="RandomDoubleGenenrator" style="rounded=0;whiteSpace=wrap;html=1;fontSize=9;" parent="1" vertex="1">
          <mxGeometry x="440" y="70" width="120" height="40" as="geometry" />
        </mxCell>
        <mxCell id="6a332XUQ1_-ckGSK8rPv-39" value="RandomIntegerGenenrator" style="swimlane;fontStyle=1;align=center;verticalAlign=top;childLayout=stackLayout;horizontal=1;startSize=26;horizontalStack=0;resizeParent=1;resizeParentMax=0;resizeLast=0;collapsible=1;marginBottom=0;whiteSpace=wrap;html=1;fontSize=9;" parent="1" vertex="1">
          <mxGeometry x="480" y="170" width="150" height="86" as="geometry" />
        </mxCell>
        <mxCell id="6a332XUQ1_-ckGSK8rPv-41" value="" style="line;strokeWidth=1;fillColor=none;align=left;verticalAlign=middle;spacingTop=-1;spacingLeft=3;spacingRight=3;rotatable=0;labelPosition=right;points=[];portConstraint=eastwest;strokeColor=inherit;fontSize=9;" parent="6a332XUQ1_-ckGSK8rPv-39" vertex="1">
          <mxGeometry y="26" width="150" height="8" as="geometry" />
        </mxCell>
        <mxCell id="6a332XUQ1_-ckGSK8rPv-42" value="+ next(int,int): int" style="text;strokeColor=none;fillColor=none;align=left;verticalAlign=top;spacingLeft=4;spacingRight=4;overflow=hidden;rotatable=0;points=[[0,0.5],[1,0.5]];portConstraint=eastwest;whiteSpace=wrap;html=1;fontSize=9;" parent="6a332XUQ1_-ckGSK8rPv-39" vertex="1">
          <mxGeometry y="34" width="150" height="52" as="geometry" />
        </mxCell>
        <mxCell id="6a332XUQ1_-ckGSK8rPv-44" value="RandomDoubleGenenrator" style="swimlane;fontStyle=1;align=center;verticalAlign=top;childLayout=stackLayout;horizontal=1;startSize=26;horizontalStack=0;resizeParent=1;resizeParentMax=0;resizeLast=0;collapsible=1;marginBottom=0;whiteSpace=wrap;html=1;fontSize=9;" parent="1" vertex="1">
          <mxGeometry x="480" y="270" width="150" height="86" as="geometry" />
        </mxCell>
        <mxCell id="6a332XUQ1_-ckGSK8rPv-45" value="" style="line;strokeWidth=1;fillColor=none;align=left;verticalAlign=middle;spacingTop=-1;spacingLeft=3;spacingRight=3;rotatable=0;labelPosition=right;points=[];portConstraint=eastwest;strokeColor=inherit;fontSize=9;" parent="6a332XUQ1_-ckGSK8rPv-44" vertex="1">
          <mxGeometry y="26" width="150" height="8" as="geometry" />
        </mxCell>
        <mxCell id="6a332XUQ1_-ckGSK8rPv-46" value="+ next(int,int): double" style="text;strokeColor=none;fillColor=none;align=left;verticalAlign=top;spacingLeft=4;spacingRight=4;overflow=hidden;rotatable=0;points=[[0,0.5],[1,0.5]];portConstraint=eastwest;whiteSpace=wrap;html=1;fontSize=9;" parent="6a332XUQ1_-ckGSK8rPv-44" vertex="1">
          <mxGeometry y="34" width="150" height="52" as="geometry" />
        </mxCell>
        <mxCell id="KYzNzlxYZ-msttR6h-OH-1" value="ShapeFactory" style="rounded=0;whiteSpace=wrap;html=1;fontSize=9;" vertex="1" parent="1">
          <mxGeometry x="5" y="10" width="90" height="40" as="geometry" />
        </mxCell>
        <mxCell id="KYzNzlxYZ-msttR6h-OH-4" value="" style="endArrow=classic;html=1;rounded=0;entryX=0;entryY=0.5;entryDx=0;entryDy=0;exitX=1;exitY=0.5;exitDx=0;exitDy=0;" edge="1" parent="1" source="KYzNzlxYZ-msttR6h-OH-8" target="6a332XUQ1_-ckGSK8rPv-15">
          <mxGeometry width="50" height="50" relative="1" as="geometry">
            <mxPoint x="115" y="159.5" as="sourcePoint" />
            <mxPoint x="160" y="130" as="targetPoint" />
          </mxGeometry>
        </mxCell>
        <mxCell id="KYzNzlxYZ-msttR6h-OH-6" value="" style="endArrow=classic;html=1;rounded=0;exitX=1;exitY=0.5;exitDx=0;exitDy=0;entryX=0;entryY=0.5;entryDx=0;entryDy=0;" edge="1" parent="1" source="KYzNzlxYZ-msttR6h-OH-1" target="6a332XUQ1_-ckGSK8rPv-6">
          <mxGeometry width="50" height="50" relative="1" as="geometry">
            <mxPoint x="65" y="29.5" as="sourcePoint" />
            <mxPoint x="120" y="30" as="targetPoint" />
          </mxGeometry>
        </mxCell>
        <mxCell id="KYzNzlxYZ-msttR6h-OH-8" value="ShapeFactory" style="swimlane;fontStyle=1;align=center;verticalAlign=top;childLayout=stackLayout;horizontal=1;startSize=26;horizontalStack=0;resizeParent=1;resizeParentMax=0;resizeLast=0;collapsible=1;marginBottom=0;whiteSpace=wrap;html=1;fontSize=9;" vertex="1" parent="1">
          <mxGeometry x="10" y="160" width="125" height="60" as="geometry" />
        </mxCell>
        <mxCell id="KYzNzlxYZ-msttR6h-OH-9" value="" style="line;strokeWidth=1;fillColor=none;align=left;verticalAlign=middle;spacingTop=-1;spacingLeft=3;spacingRight=3;rotatable=0;labelPosition=right;points=[];portConstraint=eastwest;strokeColor=inherit;fontSize=9;" vertex="1" parent="KYzNzlxYZ-msttR6h-OH-8">
          <mxGeometry y="26" width="125" height="8" as="geometry" />
        </mxCell>
        <mxCell id="KYzNzlxYZ-msttR6h-OH-10" value="+ create(int type): IShape*" style="text;strokeColor=none;fillColor=none;align=left;verticalAlign=top;spacingLeft=4;spacingRight=4;overflow=hidden;rotatable=0;points=[[0,0.5],[1,0.5]];portConstraint=eastwest;whiteSpace=wrap;html=1;fontSize=9;" vertex="1" parent="KYzNzlxYZ-msttR6h-OH-8">
          <mxGeometry y="34" width="125" height="26" as="geometry" />
        </mxCell>
      </root>
    </mxGraphModel>
  </diagram>
</mxfile>
